<mxfile host="app.diagrams.net" modified="2024-07-05T21:11:48.283Z" agent="Mozilla/5.0 (X11; Linux x86_64) AppleWebKit/537.36 (KHTML, like Gecko) Chrome/126.0.0.0 Safari/537.36" etag="eZ1JQnF6UzxdRuTHfY7x" version="24.6.4" type="device">
  <diagram name="Page-1" id="yAi_676M_7uzzy1w7SRT">
    <mxGraphModel dx="4049" dy="801" grid="1" gridSize="10" guides="1" tooltips="1" connect="1" arrows="1" fold="1" page="1" pageScale="1" pageWidth="850" pageHeight="1100" math="0" shadow="0">
      <root>
        <mxCell id="0" />
        <mxCell id="1" parent="0" />
        <mxCell id="gn4Y90NcxJWyfD9i8AOl-1" value="&lt;font style=&quot;font-size: 30px;&quot;&gt;&lt;b&gt;Globals ( Backend )&lt;/b&gt;&lt;/font&gt;" style="rounded=0;whiteSpace=wrap;html=1;" parent="1" vertex="1">
          <mxGeometry x="10" y="20" width="560" height="60" as="geometry" />
        </mxCell>
        <mxCell id="gn4Y90NcxJWyfD9i8AOl-2" value="&lt;font style=&quot;font-size: 20px;&quot;&gt;Header&lt;/font&gt;" style="rounded=1;whiteSpace=wrap;html=1;" parent="1" vertex="1">
          <mxGeometry x="215" y="120" width="210" height="60" as="geometry" />
        </mxCell>
        <mxCell id="gn4Y90NcxJWyfD9i8AOl-3" value="&lt;font style=&quot;font-size: 20px;&quot;&gt;Footer&lt;/font&gt;" style="rounded=1;whiteSpace=wrap;html=1;" parent="1" vertex="1">
          <mxGeometry x="220" y="200" width="210" height="60" as="geometry" />
        </mxCell>
        <mxCell id="gn4Y90NcxJWyfD9i8AOl-4" value="&lt;font style=&quot;font-size: 20px;&quot;&gt;Contact&lt;/font&gt;" style="rounded=1;whiteSpace=wrap;html=1;" parent="1" vertex="1">
          <mxGeometry x="215" y="280" width="210" height="60" as="geometry" />
        </mxCell>
        <mxCell id="gn4Y90NcxJWyfD9i8AOl-5" value="&lt;font style=&quot;font-size: 20px;&quot;&gt;Terms &amp;amp; Condition&lt;/font&gt;" style="rounded=1;whiteSpace=wrap;html=1;" parent="1" vertex="1">
          <mxGeometry x="215" y="360" width="210" height="60" as="geometry" />
        </mxCell>
        <mxCell id="gn4Y90NcxJWyfD9i8AOl-6" value="&lt;font style=&quot;font-size: 20px;&quot;&gt;Settings&lt;/font&gt;" style="rounded=1;whiteSpace=wrap;html=1;" parent="1" vertex="1">
          <mxGeometry x="215" y="440" width="210" height="60" as="geometry" />
        </mxCell>
        <mxCell id="waNOCx46b2gV3BR8R50c-1" value="&lt;font style=&quot;font-size: 30px;&quot;&gt;&lt;b&gt;Collections ( Backend )&lt;/b&gt;&lt;/font&gt;" style="rounded=0;whiteSpace=wrap;html=1;" vertex="1" parent="1">
          <mxGeometry x="-740" y="20" width="560" height="60" as="geometry" />
        </mxCell>
        <mxCell id="waNOCx46b2gV3BR8R50c-3" value="&lt;font style=&quot;font-size: 20px;&quot;&gt;Page&lt;/font&gt;" style="rounded=1;whiteSpace=wrap;html=1;" vertex="1" parent="1">
          <mxGeometry x="-600" y="120" width="240" height="60" as="geometry" />
        </mxCell>
        <mxCell id="waNOCx46b2gV3BR8R50c-4" value="&lt;font style=&quot;font-size: 20px;&quot;&gt;Products&lt;/font&gt;" style="rounded=1;whiteSpace=wrap;html=1;" vertex="1" parent="1">
          <mxGeometry x="-600" y="210" width="240" height="60" as="geometry" />
        </mxCell>
        <mxCell id="waNOCx46b2gV3BR8R50c-5" value="&lt;font style=&quot;font-size: 20px;&quot;&gt;Media&lt;/font&gt;" style="rounded=1;whiteSpace=wrap;html=1;" vertex="1" parent="1">
          <mxGeometry x="-600" y="300" width="240" height="60" as="geometry" />
        </mxCell>
        <mxCell id="waNOCx46b2gV3BR8R50c-6" value="&lt;font style=&quot;font-size: 20px;&quot;&gt;Categories&lt;/font&gt;" style="rounded=1;whiteSpace=wrap;html=1;" vertex="1" parent="1">
          <mxGeometry x="-600" y="390" width="240" height="60" as="geometry" />
        </mxCell>
        <mxCell id="waNOCx46b2gV3BR8R50c-7" value="&lt;font style=&quot;font-size: 20px;&quot;&gt;Users&lt;/font&gt;" style="rounded=1;whiteSpace=wrap;html=1;" vertex="1" parent="1">
          <mxGeometry x="-600" y="470" width="240" height="60" as="geometry" />
        </mxCell>
        <mxCell id="waNOCx46b2gV3BR8R50c-8" value="&lt;font style=&quot;font-size: 20px;&quot;&gt;Navigation Collections&lt;/font&gt;" style="rounded=1;whiteSpace=wrap;html=1;" vertex="1" parent="1">
          <mxGeometry x="-600" y="630" width="240" height="60" as="geometry" />
        </mxCell>
        <mxCell id="waNOCx46b2gV3BR8R50c-11" value="&lt;font style=&quot;font-size: 20px;&quot;&gt;Orders&lt;/font&gt;" style="rounded=1;whiteSpace=wrap;html=1;" vertex="1" parent="1">
          <mxGeometry x="-600" y="550" width="240" height="60" as="geometry" />
        </mxCell>
        <mxCell id="waNOCx46b2gV3BR8R50c-13" value="&lt;span style=&quot;font-size: 30px;&quot;&gt;&lt;b&gt;Layout ( Backend )&lt;/b&gt;&lt;/span&gt;" style="rounded=0;whiteSpace=wrap;html=1;" vertex="1" parent="1">
          <mxGeometry x="-1630" y="20" width="560" height="60" as="geometry" />
        </mxCell>
        <mxCell id="waNOCx46b2gV3BR8R50c-15" value="Content" style="rounded=1;whiteSpace=wrap;html=1;" vertex="1" parent="1">
          <mxGeometry x="-1540" y="120" width="240" height="60" as="geometry" />
        </mxCell>
        <mxCell id="waNOCx46b2gV3BR8R50c-16" value="Media block" style="rounded=1;whiteSpace=wrap;html=1;" vertex="1" parent="1">
          <mxGeometry x="-1540" y="210" width="240" height="60" as="geometry" />
        </mxCell>
        <mxCell id="waNOCx46b2gV3BR8R50c-17" value="Archive" style="rounded=1;whiteSpace=wrap;html=1;" vertex="1" parent="1">
          <mxGeometry x="-1540" y="290" width="240" height="60" as="geometry" />
        </mxCell>
        <mxCell id="waNOCx46b2gV3BR8R50c-18" value="Call to action" style="rounded=1;whiteSpace=wrap;html=1;" vertex="1" parent="1">
          <mxGeometry x="-1540" y="370" width="240" height="60" as="geometry" />
        </mxCell>
        <mxCell id="waNOCx46b2gV3BR8R50c-19" value="Product Layout" style="rounded=1;whiteSpace=wrap;html=1;" vertex="1" parent="1">
          <mxGeometry x="-1540" y="450" width="240" height="60" as="geometry" />
        </mxCell>
        <mxCell id="waNOCx46b2gV3BR8R50c-20" value="&lt;b style=&quot;font-size: 30px;&quot;&gt;Blocks ( F&lt;/b&gt;&lt;span style=&quot;font-size: 30px;&quot;&gt;&lt;b&gt;rontend&amp;nbsp;&lt;/b&gt;&lt;/span&gt;&lt;b style=&quot;font-size: 30px;&quot;&gt;)&lt;/b&gt;" style="rounded=0;whiteSpace=wrap;html=1;" vertex="1" parent="1">
          <mxGeometry x="-2320" y="20" width="560" height="60" as="geometry" />
        </mxCell>
        <mxCell id="waNOCx46b2gV3BR8R50c-21" value="Links" style="rounded=1;whiteSpace=wrap;html=1;" vertex="1" parent="1">
          <mxGeometry x="-2200" y="120" width="240" height="60" as="geometry" />
        </mxCell>
        <mxCell id="waNOCx46b2gV3BR8R50c-22" value="Paragraph" style="rounded=1;whiteSpace=wrap;html=1;" vertex="1" parent="1">
          <mxGeometry x="-2200" y="200" width="240" height="60" as="geometry" />
        </mxCell>
        <mxCell id="waNOCx46b2gV3BR8R50c-23" value="Media" style="rounded=1;whiteSpace=wrap;html=1;" vertex="1" parent="1">
          <mxGeometry x="-2200" y="290" width="240" height="60" as="geometry" />
        </mxCell>
        <mxCell id="waNOCx46b2gV3BR8R50c-24" value="Video Player" style="rounded=1;whiteSpace=wrap;html=1;" vertex="1" parent="1">
          <mxGeometry x="-2200" y="370" width="240" height="60" as="geometry" />
        </mxCell>
        <mxCell id="waNOCx46b2gV3BR8R50c-25" value="Slider" style="rounded=1;whiteSpace=wrap;html=1;" vertex="1" parent="1">
          <mxGeometry x="-2200" y="450" width="240" height="60" as="geometry" />
        </mxCell>
        <mxCell id="waNOCx46b2gV3BR8R50c-26" value="Announcement" style="rounded=1;whiteSpace=wrap;html=1;" vertex="1" parent="1">
          <mxGeometry x="-2200" y="530" width="240" height="60" as="geometry" />
        </mxCell>
        <mxCell id="waNOCx46b2gV3BR8R50c-27" value="List view" style="rounded=1;whiteSpace=wrap;html=1;" vertex="1" parent="1">
          <mxGeometry x="-2200" y="610" width="240" height="60" as="geometry" />
        </mxCell>
        <mxCell id="waNOCx46b2gV3BR8R50c-28" value="Blog&amp;nbsp;" style="rounded=1;whiteSpace=wrap;html=1;" vertex="1" parent="1">
          <mxGeometry x="-2200" y="690" width="240" height="60" as="geometry" />
        </mxCell>
        <mxCell id="waNOCx46b2gV3BR8R50c-29" value="Blog Layout" style="rounded=1;whiteSpace=wrap;html=1;" vertex="1" parent="1">
          <mxGeometry x="-1540" y="530" width="240" height="60" as="geometry" />
        </mxCell>
        <mxCell id="waNOCx46b2gV3BR8R50c-30" value="" style="rounded=0;whiteSpace=wrap;html=1;" vertex="1" parent="1">
          <mxGeometry x="-1620" y="980" width="1010" height="730" as="geometry" />
        </mxCell>
        <mxCell id="waNOCx46b2gV3BR8R50c-31" value="Logo" style="rounded=0;whiteSpace=wrap;html=1;" vertex="1" parent="1">
          <mxGeometry x="-1570" y="1010" width="120" height="60" as="geometry" />
        </mxCell>
        <mxCell id="waNOCx46b2gV3BR8R50c-32" value="Navigation" style="rounded=0;whiteSpace=wrap;html=1;" vertex="1" parent="1">
          <mxGeometry x="-1395" y="1010" width="490" height="60" as="geometry" />
        </mxCell>
        <mxCell id="waNOCx46b2gV3BR8R50c-33" value="Credential" style="rounded=0;whiteSpace=wrap;html=1;" vertex="1" parent="1">
          <mxGeometry x="-810" y="1010" width="120" height="60" as="geometry" />
        </mxCell>
        <mxCell id="waNOCx46b2gV3BR8R50c-48" value="" style="rounded=0;whiteSpace=wrap;html=1;" vertex="1" parent="1">
          <mxGeometry x="-1550" y="1180" width="830" height="60" as="geometry" />
        </mxCell>
        <mxCell id="waNOCx46b2gV3BR8R50c-49" value="All Categories" style="rounded=0;whiteSpace=wrap;html=1;" vertex="1" parent="1">
          <mxGeometry x="-1550" y="1280" width="120" height="30" as="geometry" />
        </mxCell>
        <mxCell id="waNOCx46b2gV3BR8R50c-50" value="Categories" style="rounded=0;whiteSpace=wrap;html=1;" vertex="1" parent="1">
          <mxGeometry x="-1410" y="1280" width="120" height="30" as="geometry" />
        </mxCell>
        <mxCell id="waNOCx46b2gV3BR8R50c-53" value="Categories" style="rounded=0;whiteSpace=wrap;html=1;" vertex="1" parent="1">
          <mxGeometry x="-1270" y="1280" width="120" height="30" as="geometry" />
        </mxCell>
        <mxCell id="waNOCx46b2gV3BR8R50c-55" value="Categories" style="rounded=0;whiteSpace=wrap;html=1;" vertex="1" parent="1">
          <mxGeometry x="-1130" y="1280" width="120" height="30" as="geometry" />
        </mxCell>
        <mxCell id="waNOCx46b2gV3BR8R50c-56" value="Categories" style="rounded=0;whiteSpace=wrap;html=1;" vertex="1" parent="1">
          <mxGeometry x="-990" y="1280" width="120" height="30" as="geometry" />
        </mxCell>
        <mxCell id="waNOCx46b2gV3BR8R50c-57" value="Categories" style="rounded=0;whiteSpace=wrap;html=1;" vertex="1" parent="1">
          <mxGeometry x="-850" y="1280" width="120" height="30" as="geometry" />
        </mxCell>
        <mxCell id="waNOCx46b2gV3BR8R50c-58" value="Search product" style="text;html=1;align=center;verticalAlign=middle;whiteSpace=wrap;rounded=0;" vertex="1" parent="1">
          <mxGeometry x="-1530" y="1195" width="140" height="30" as="geometry" />
        </mxCell>
        <mxCell id="waNOCx46b2gV3BR8R50c-59" value="" style="ellipse;whiteSpace=wrap;html=1;aspect=fixed;" vertex="1" parent="1">
          <mxGeometry x="-770" y="1195" width="30" height="30" as="geometry" />
        </mxCell>
        <mxCell id="waNOCx46b2gV3BR8R50c-63" value="Demo of hot Products&lt;span style=&quot;color: rgba(0, 0, 0, 0); font-family: monospace; font-size: 0px; text-align: start; text-wrap: nowrap;&quot;&gt;%3CmxGraphModel%3E%3Croot%3E%3CmxCell%20id%3D%220%22%2F%3E%3CmxCell%20id%3D%221%22%20parent%3D%220%22%2F%3E%3CmxCell%20id%3D%222%22%20value%3D%22Categories%22%20style%3D%22rounded%3D0%3BwhiteSpace%3Dwrap%3Bhtml%3D1%3B%22%20vertex%3D%221%22%20parent%3D%221%22%3E%3CmxGeometry%20x%3D%22-990%22%20y%3D%221280%22%20width%3D%22120%22%20height%3D%2230%22%20as%3D%22geometry%22%2F%3E%3C%2FmxCell%3E%3C%2Froot%3E%3C%2FmxGraphModel%3E&lt;/span&gt;" style="whiteSpace=wrap;html=1;aspect=fixed;" vertex="1" parent="1">
          <mxGeometry x="-1560" y="1380" width="80" height="80" as="geometry" />
        </mxCell>
        <mxCell id="waNOCx46b2gV3BR8R50c-65" value="Demo of hot Products&lt;span style=&quot;color: rgba(0, 0, 0, 0); font-family: monospace; font-size: 0px; text-align: start; text-wrap: nowrap;&quot;&gt;%3CmxGraphModel%3E%3Croot%3E%3CmxCell%20id%3D%220%22%2F%3E%3CmxCell%20id%3D%221%22%20parent%3D%220%22%2F%3E%3CmxCell%20id%3D%222%22%20value%3D%22Categories%22%20style%3D%22rounded%3D0%3BwhiteSpace%3Dwrap%3Bhtml%3D1%3B%22%20vertex%3D%221%22%20parent%3D%221%22%3E%3CmxGeometry%20x%3D%22-990%22%20y%3D%221280%22%20width%3D%22120%22%20height%3D%2230%22%20as%3D%22geometry%22%2F%3E%3C%2FmxCell%3E%3C%2Froot%3E%3C%2FmxGraphModel%3E&lt;/span&gt;" style="whiteSpace=wrap;html=1;aspect=fixed;" vertex="1" parent="1">
          <mxGeometry x="-1430" y="1380" width="80" height="80" as="geometry" />
        </mxCell>
        <mxCell id="waNOCx46b2gV3BR8R50c-67" value="Demo of hot Products&lt;span style=&quot;color: rgba(0, 0, 0, 0); font-family: monospace; font-size: 0px; text-align: start; text-wrap: nowrap;&quot;&gt;%3CmxGraphModel%3E%3Croot%3E%3CmxCell%20id%3D%220%22%2F%3E%3CmxCell%20id%3D%221%22%20parent%3D%220%22%2F%3E%3CmxCell%20id%3D%222%22%20value%3D%22Categories%22%20style%3D%22rounded%3D0%3BwhiteSpace%3Dwrap%3Bhtml%3D1%3B%22%20vertex%3D%221%22%20parent%3D%221%22%3E%3CmxGeometry%20x%3D%22-990%22%20y%3D%221280%22%20width%3D%22120%22%20height%3D%2230%22%20as%3D%22geometry%22%2F%3E%3C%2FmxCell%3E%3C%2Froot%3E%3C%2FmxGraphModel%3E&lt;/span&gt;" style="whiteSpace=wrap;html=1;aspect=fixed;" vertex="1" parent="1">
          <mxGeometry x="-1300" y="1380" width="80" height="80" as="geometry" />
        </mxCell>
        <mxCell id="waNOCx46b2gV3BR8R50c-68" value="Demo of hot Products&lt;span style=&quot;color: rgba(0, 0, 0, 0); font-family: monospace; font-size: 0px; text-align: start; text-wrap: nowrap;&quot;&gt;%3CmxGraphModel%3E%3Croot%3E%3CmxCell%20id%3D%220%22%2F%3E%3CmxCell%20id%3D%221%22%20parent%3D%220%22%2F%3E%3CmxCell%20id%3D%222%22%20value%3D%22Categories%22%20style%3D%22rounded%3D0%3BwhiteSpace%3Dwrap%3Bhtml%3D1%3B%22%20vertex%3D%221%22%20parent%3D%221%22%3E%3CmxGeometry%20x%3D%22-990%22%20y%3D%221280%22%20width%3D%22120%22%20height%3D%2230%22%20as%3D%22geometry%22%2F%3E%3C%2FmxCell%3E%3C%2Froot%3E%3C%2FmxGraphModel%3E&lt;/span&gt;" style="whiteSpace=wrap;html=1;aspect=fixed;" vertex="1" parent="1">
          <mxGeometry x="-1050" y="1380" width="80" height="80" as="geometry" />
        </mxCell>
        <mxCell id="waNOCx46b2gV3BR8R50c-69" value="Demo of hot Products&lt;span style=&quot;color: rgba(0, 0, 0, 0); font-family: monospace; font-size: 0px; text-align: start; text-wrap: nowrap;&quot;&gt;%3CmxGraphModel%3E%3Croot%3E%3CmxCell%20id%3D%220%22%2F%3E%3CmxCell%20id%3D%221%22%20parent%3D%220%22%2F%3E%3CmxCell%20id%3D%222%22%20value%3D%22Categories%22%20style%3D%22rounded%3D0%3BwhiteSpace%3Dwrap%3Bhtml%3D1%3B%22%20vertex%3D%221%22%20parent%3D%221%22%3E%3CmxGeometry%20x%3D%22-990%22%20y%3D%221280%22%20width%3D%22120%22%20height%3D%2230%22%20as%3D%22geometry%22%2F%3E%3C%2FmxCell%3E%3C%2Froot%3E%3C%2FmxGraphModel%3E&lt;/span&gt;" style="whiteSpace=wrap;html=1;aspect=fixed;" vertex="1" parent="1">
          <mxGeometry x="-1175" y="1380" width="80" height="80" as="geometry" />
        </mxCell>
        <mxCell id="waNOCx46b2gV3BR8R50c-70" value="Demo of hot Products&lt;span style=&quot;color: rgba(0, 0, 0, 0); font-family: monospace; font-size: 0px; text-align: start; text-wrap: nowrap;&quot;&gt;%3CmxGraphModel%3E%3Croot%3E%3CmxCell%20id%3D%220%22%2F%3E%3CmxCell%20id%3D%221%22%20parent%3D%220%22%2F%3E%3CmxCell%20id%3D%222%22%20value%3D%22Categories%22%20style%3D%22rounded%3D0%3BwhiteSpace%3Dwrap%3Bhtml%3D1%3B%22%20vertex%3D%221%22%20parent%3D%221%22%3E%3CmxGeometry%20x%3D%22-990%22%20y%3D%221280%22%20width%3D%22120%22%20height%3D%2230%22%20as%3D%22geometry%22%2F%3E%3C%2FmxCell%3E%3C%2Froot%3E%3C%2FmxGraphModel%3E&lt;/span&gt;" style="whiteSpace=wrap;html=1;aspect=fixed;" vertex="1" parent="1">
          <mxGeometry x="-920" y="1380" width="80" height="80" as="geometry" />
        </mxCell>
        <mxCell id="waNOCx46b2gV3BR8R50c-71" value="Demo of hot Products&lt;span style=&quot;color: rgba(0, 0, 0, 0); font-family: monospace; font-size: 0px; text-align: start; text-wrap: nowrap;&quot;&gt;%3CmxGraphModel%3E%3Croot%3E%3CmxCell%20id%3D%220%22%2F%3E%3CmxCell%20id%3D%221%22%20parent%3D%220%22%2F%3E%3CmxCell%20id%3D%222%22%20value%3D%22Categories%22%20style%3D%22rounded%3D0%3BwhiteSpace%3Dwrap%3Bhtml%3D1%3B%22%20vertex%3D%221%22%20parent%3D%221%22%3E%3CmxGeometry%20x%3D%22-990%22%20y%3D%221280%22%20width%3D%22120%22%20height%3D%2230%22%20as%3D%22geometry%22%2F%3E%3C%2FmxCell%3E%3C%2Froot%3E%3C%2FmxGraphModel%3E&lt;/span&gt;" style="whiteSpace=wrap;html=1;aspect=fixed;" vertex="1" parent="1">
          <mxGeometry x="-800" y="1380" width="80" height="80" as="geometry" />
        </mxCell>
        <mxCell id="waNOCx46b2gV3BR8R50c-73" value="Demo of hot Products&lt;span style=&quot;color: rgba(0, 0, 0, 0); font-family: monospace; font-size: 0px; text-align: start; text-wrap: nowrap;&quot;&gt;%3CmxGraphModel%3E%3Croot%3E%3CmxCell%20id%3D%220%22%2F%3E%3CmxCell%20id%3D%221%22%20parent%3D%220%22%2F%3E%3CmxCell%20id%3D%222%22%20value%3D%22Categories%22%20style%3D%22rounded%3D0%3BwhiteSpace%3Dwrap%3Bhtml%3D1%3B%22%20vertex%3D%221%22%20parent%3D%221%22%3E%3CmxGeometry%20x%3D%22-990%22%20y%3D%221280%22%20width%3D%22120%22%20height%3D%2230%22%20as%3D%22geometry%22%2F%3E%3C%2FmxCell%3E%3C%2Froot%3E%3C%2FmxGraphModel%3E&lt;/span&gt;" style="whiteSpace=wrap;html=1;aspect=fixed;" vertex="1" parent="1">
          <mxGeometry x="-1560" y="1490" width="80" height="80" as="geometry" />
        </mxCell>
        <mxCell id="waNOCx46b2gV3BR8R50c-74" value="Demo of hot Products&lt;span style=&quot;color: rgba(0, 0, 0, 0); font-family: monospace; font-size: 0px; text-align: start; text-wrap: nowrap;&quot;&gt;%3CmxGraphModel%3E%3Croot%3E%3CmxCell%20id%3D%220%22%2F%3E%3CmxCell%20id%3D%221%22%20parent%3D%220%22%2F%3E%3CmxCell%20id%3D%222%22%20value%3D%22Categories%22%20style%3D%22rounded%3D0%3BwhiteSpace%3Dwrap%3Bhtml%3D1%3B%22%20vertex%3D%221%22%20parent%3D%221%22%3E%3CmxGeometry%20x%3D%22-990%22%20y%3D%221280%22%20width%3D%22120%22%20height%3D%2230%22%20as%3D%22geometry%22%2F%3E%3C%2FmxCell%3E%3C%2Froot%3E%3C%2FmxGraphModel%3E&lt;/span&gt;" style="whiteSpace=wrap;html=1;aspect=fixed;" vertex="1" parent="1">
          <mxGeometry x="-1430" y="1490" width="80" height="80" as="geometry" />
        </mxCell>
        <mxCell id="waNOCx46b2gV3BR8R50c-75" value="Demo of hot Products&lt;span style=&quot;color: rgba(0, 0, 0, 0); font-family: monospace; font-size: 0px; text-align: start; text-wrap: nowrap;&quot;&gt;%3CmxGraphModel%3E%3Croot%3E%3CmxCell%20id%3D%220%22%2F%3E%3CmxCell%20id%3D%221%22%20parent%3D%220%22%2F%3E%3CmxCell%20id%3D%222%22%20value%3D%22Categories%22%20style%3D%22rounded%3D0%3BwhiteSpace%3Dwrap%3Bhtml%3D1%3B%22%20vertex%3D%221%22%20parent%3D%221%22%3E%3CmxGeometry%20x%3D%22-990%22%20y%3D%221280%22%20width%3D%22120%22%20height%3D%2230%22%20as%3D%22geometry%22%2F%3E%3C%2FmxCell%3E%3C%2Froot%3E%3C%2FmxGraphModel%3E&lt;/span&gt;" style="whiteSpace=wrap;html=1;aspect=fixed;" vertex="1" parent="1">
          <mxGeometry x="-1300" y="1490" width="80" height="80" as="geometry" />
        </mxCell>
        <mxCell id="waNOCx46b2gV3BR8R50c-76" value="Demo of hot Products&lt;span style=&quot;color: rgba(0, 0, 0, 0); font-family: monospace; font-size: 0px; text-align: start; text-wrap: nowrap;&quot;&gt;%3CmxGraphModel%3E%3Croot%3E%3CmxCell%20id%3D%220%22%2F%3E%3CmxCell%20id%3D%221%22%20parent%3D%220%22%2F%3E%3CmxCell%20id%3D%222%22%20value%3D%22Categories%22%20style%3D%22rounded%3D0%3BwhiteSpace%3Dwrap%3Bhtml%3D1%3B%22%20vertex%3D%221%22%20parent%3D%221%22%3E%3CmxGeometry%20x%3D%22-990%22%20y%3D%221280%22%20width%3D%22120%22%20height%3D%2230%22%20as%3D%22geometry%22%2F%3E%3C%2FmxCell%3E%3C%2Froot%3E%3C%2FmxGraphModel%3E&lt;/span&gt;" style="whiteSpace=wrap;html=1;aspect=fixed;" vertex="1" parent="1">
          <mxGeometry x="-1050" y="1490" width="80" height="80" as="geometry" />
        </mxCell>
        <mxCell id="waNOCx46b2gV3BR8R50c-77" value="Demo of hot Products&lt;span style=&quot;color: rgba(0, 0, 0, 0); font-family: monospace; font-size: 0px; text-align: start; text-wrap: nowrap;&quot;&gt;%3CmxGraphModel%3E%3Croot%3E%3CmxCell%20id%3D%220%22%2F%3E%3CmxCell%20id%3D%221%22%20parent%3D%220%22%2F%3E%3CmxCell%20id%3D%222%22%20value%3D%22Categories%22%20style%3D%22rounded%3D0%3BwhiteSpace%3Dwrap%3Bhtml%3D1%3B%22%20vertex%3D%221%22%20parent%3D%221%22%3E%3CmxGeometry%20x%3D%22-990%22%20y%3D%221280%22%20width%3D%22120%22%20height%3D%2230%22%20as%3D%22geometry%22%2F%3E%3C%2FmxCell%3E%3C%2Froot%3E%3C%2FmxGraphModel%3E&lt;/span&gt;" style="whiteSpace=wrap;html=1;aspect=fixed;" vertex="1" parent="1">
          <mxGeometry x="-1175" y="1490" width="80" height="80" as="geometry" />
        </mxCell>
        <mxCell id="waNOCx46b2gV3BR8R50c-78" value="Demo of hot Products&lt;span style=&quot;color: rgba(0, 0, 0, 0); font-family: monospace; font-size: 0px; text-align: start; text-wrap: nowrap;&quot;&gt;%3CmxGraphModel%3E%3Croot%3E%3CmxCell%20id%3D%220%22%2F%3E%3CmxCell%20id%3D%221%22%20parent%3D%220%22%2F%3E%3CmxCell%20id%3D%222%22%20value%3D%22Categories%22%20style%3D%22rounded%3D0%3BwhiteSpace%3Dwrap%3Bhtml%3D1%3B%22%20vertex%3D%221%22%20parent%3D%221%22%3E%3CmxGeometry%20x%3D%22-990%22%20y%3D%221280%22%20width%3D%22120%22%20height%3D%2230%22%20as%3D%22geometry%22%2F%3E%3C%2FmxCell%3E%3C%2Froot%3E%3C%2FmxGraphModel%3E&lt;/span&gt;" style="whiteSpace=wrap;html=1;aspect=fixed;" vertex="1" parent="1">
          <mxGeometry x="-920" y="1490" width="80" height="80" as="geometry" />
        </mxCell>
        <mxCell id="waNOCx46b2gV3BR8R50c-79" value="Demo of hot Products&lt;span style=&quot;color: rgba(0, 0, 0, 0); font-family: monospace; font-size: 0px; text-align: start; text-wrap: nowrap;&quot;&gt;%3CmxGraphModel%3E%3Croot%3E%3CmxCell%20id%3D%220%22%2F%3E%3CmxCell%20id%3D%221%22%20parent%3D%220%22%2F%3E%3CmxCell%20id%3D%222%22%20value%3D%22Categories%22%20style%3D%22rounded%3D0%3BwhiteSpace%3Dwrap%3Bhtml%3D1%3B%22%20vertex%3D%221%22%20parent%3D%221%22%3E%3CmxGeometry%20x%3D%22-990%22%20y%3D%221280%22%20width%3D%22120%22%20height%3D%2230%22%20as%3D%22geometry%22%2F%3E%3C%2FmxCell%3E%3C%2Froot%3E%3C%2FmxGraphModel%3E&lt;/span&gt;" style="whiteSpace=wrap;html=1;aspect=fixed;" vertex="1" parent="1">
          <mxGeometry x="-800" y="1490" width="80" height="80" as="geometry" />
        </mxCell>
        <mxCell id="waNOCx46b2gV3BR8R50c-80" value="Demo of hot Products&lt;span style=&quot;color: rgba(0, 0, 0, 0); font-family: monospace; font-size: 0px; text-align: start; text-wrap: nowrap;&quot;&gt;%3CmxGraphModel%3E%3Croot%3E%3CmxCell%20id%3D%220%22%2F%3E%3CmxCell%20id%3D%221%22%20parent%3D%220%22%2F%3E%3CmxCell%20id%3D%222%22%20value%3D%22Categories%22%20style%3D%22rounded%3D0%3BwhiteSpace%3Dwrap%3Bhtml%3D1%3B%22%20vertex%3D%221%22%20parent%3D%221%22%3E%3CmxGeometry%20x%3D%22-990%22%20y%3D%221280%22%20width%3D%22120%22%20height%3D%2230%22%20as%3D%22geometry%22%2F%3E%3C%2FmxCell%3E%3C%2Froot%3E%3C%2FmxGraphModel%3E&lt;/span&gt;" style="whiteSpace=wrap;html=1;aspect=fixed;" vertex="1" parent="1">
          <mxGeometry x="-1560" y="1590" width="80" height="80" as="geometry" />
        </mxCell>
        <mxCell id="waNOCx46b2gV3BR8R50c-81" value="Demo of hot Products&lt;span style=&quot;color: rgba(0, 0, 0, 0); font-family: monospace; font-size: 0px; text-align: start; text-wrap: nowrap;&quot;&gt;%3CmxGraphModel%3E%3Croot%3E%3CmxCell%20id%3D%220%22%2F%3E%3CmxCell%20id%3D%221%22%20parent%3D%220%22%2F%3E%3CmxCell%20id%3D%222%22%20value%3D%22Categories%22%20style%3D%22rounded%3D0%3BwhiteSpace%3Dwrap%3Bhtml%3D1%3B%22%20vertex%3D%221%22%20parent%3D%221%22%3E%3CmxGeometry%20x%3D%22-990%22%20y%3D%221280%22%20width%3D%22120%22%20height%3D%2230%22%20as%3D%22geometry%22%2F%3E%3C%2FmxCell%3E%3C%2Froot%3E%3C%2FmxGraphModel%3E&lt;/span&gt;" style="whiteSpace=wrap;html=1;aspect=fixed;" vertex="1" parent="1">
          <mxGeometry x="-1430" y="1590" width="80" height="80" as="geometry" />
        </mxCell>
        <mxCell id="waNOCx46b2gV3BR8R50c-82" value="Demo of hot Products&lt;span style=&quot;color: rgba(0, 0, 0, 0); font-family: monospace; font-size: 0px; text-align: start; text-wrap: nowrap;&quot;&gt;%3CmxGraphModel%3E%3Croot%3E%3CmxCell%20id%3D%220%22%2F%3E%3CmxCell%20id%3D%221%22%20parent%3D%220%22%2F%3E%3CmxCell%20id%3D%222%22%20value%3D%22Categories%22%20style%3D%22rounded%3D0%3BwhiteSpace%3Dwrap%3Bhtml%3D1%3B%22%20vertex%3D%221%22%20parent%3D%221%22%3E%3CmxGeometry%20x%3D%22-990%22%20y%3D%221280%22%20width%3D%22120%22%20height%3D%2230%22%20as%3D%22geometry%22%2F%3E%3C%2FmxCell%3E%3C%2Froot%3E%3C%2FmxGraphModel%3E&lt;/span&gt;" style="whiteSpace=wrap;html=1;aspect=fixed;" vertex="1" parent="1">
          <mxGeometry x="-1300" y="1590" width="80" height="80" as="geometry" />
        </mxCell>
        <mxCell id="waNOCx46b2gV3BR8R50c-83" value="Demo of hot Products&lt;span style=&quot;color: rgba(0, 0, 0, 0); font-family: monospace; font-size: 0px; text-align: start; text-wrap: nowrap;&quot;&gt;%3CmxGraphModel%3E%3Croot%3E%3CmxCell%20id%3D%220%22%2F%3E%3CmxCell%20id%3D%221%22%20parent%3D%220%22%2F%3E%3CmxCell%20id%3D%222%22%20value%3D%22Categories%22%20style%3D%22rounded%3D0%3BwhiteSpace%3Dwrap%3Bhtml%3D1%3B%22%20vertex%3D%221%22%20parent%3D%221%22%3E%3CmxGeometry%20x%3D%22-990%22%20y%3D%221280%22%20width%3D%22120%22%20height%3D%2230%22%20as%3D%22geometry%22%2F%3E%3C%2FmxCell%3E%3C%2Froot%3E%3C%2FmxGraphModel%3E&lt;/span&gt;" style="whiteSpace=wrap;html=1;aspect=fixed;" vertex="1" parent="1">
          <mxGeometry x="-1050" y="1590" width="80" height="80" as="geometry" />
        </mxCell>
        <mxCell id="waNOCx46b2gV3BR8R50c-84" value="Demo of hot Products&lt;span style=&quot;color: rgba(0, 0, 0, 0); font-family: monospace; font-size: 0px; text-align: start; text-wrap: nowrap;&quot;&gt;%3CmxGraphModel%3E%3Croot%3E%3CmxCell%20id%3D%220%22%2F%3E%3CmxCell%20id%3D%221%22%20parent%3D%220%22%2F%3E%3CmxCell%20id%3D%222%22%20value%3D%22Categories%22%20style%3D%22rounded%3D0%3BwhiteSpace%3Dwrap%3Bhtml%3D1%3B%22%20vertex%3D%221%22%20parent%3D%221%22%3E%3CmxGeometry%20x%3D%22-990%22%20y%3D%221280%22%20width%3D%22120%22%20height%3D%2230%22%20as%3D%22geometry%22%2F%3E%3C%2FmxCell%3E%3C%2Froot%3E%3C%2FmxGraphModel%3E&lt;/span&gt;" style="whiteSpace=wrap;html=1;aspect=fixed;" vertex="1" parent="1">
          <mxGeometry x="-1175" y="1590" width="80" height="80" as="geometry" />
        </mxCell>
        <mxCell id="waNOCx46b2gV3BR8R50c-85" value="Demo of hot Products&lt;span style=&quot;color: rgba(0, 0, 0, 0); font-family: monospace; font-size: 0px; text-align: start; text-wrap: nowrap;&quot;&gt;%3CmxGraphModel%3E%3Croot%3E%3CmxCell%20id%3D%220%22%2F%3E%3CmxCell%20id%3D%221%22%20parent%3D%220%22%2F%3E%3CmxCell%20id%3D%222%22%20value%3D%22Categories%22%20style%3D%22rounded%3D0%3BwhiteSpace%3Dwrap%3Bhtml%3D1%3B%22%20vertex%3D%221%22%20parent%3D%221%22%3E%3CmxGeometry%20x%3D%22-990%22%20y%3D%221280%22%20width%3D%22120%22%20height%3D%2230%22%20as%3D%22geometry%22%2F%3E%3C%2FmxCell%3E%3C%2Froot%3E%3C%2FmxGraphModel%3E&lt;/span&gt;" style="whiteSpace=wrap;html=1;aspect=fixed;" vertex="1" parent="1">
          <mxGeometry x="-920" y="1590" width="80" height="80" as="geometry" />
        </mxCell>
        <mxCell id="waNOCx46b2gV3BR8R50c-86" value="Demo of hot Products&lt;span style=&quot;color: rgba(0, 0, 0, 0); font-family: monospace; font-size: 0px; text-align: start; text-wrap: nowrap;&quot;&gt;%3CmxGraphModel%3E%3Croot%3E%3CmxCell%20id%3D%220%22%2F%3E%3CmxCell%20id%3D%221%22%20parent%3D%220%22%2F%3E%3CmxCell%20id%3D%222%22%20value%3D%22Categories%22%20style%3D%22rounded%3D0%3BwhiteSpace%3Dwrap%3Bhtml%3D1%3B%22%20vertex%3D%221%22%20parent%3D%221%22%3E%3CmxGeometry%20x%3D%22-990%22%20y%3D%221280%22%20width%3D%22120%22%20height%3D%2230%22%20as%3D%22geometry%22%2F%3E%3C%2FmxCell%3E%3C%2Froot%3E%3C%2FmxGraphModel%3E&lt;/span&gt;" style="whiteSpace=wrap;html=1;aspect=fixed;" vertex="1" parent="1">
          <mxGeometry x="-800" y="1590" width="80" height="80" as="geometry" />
        </mxCell>
        <mxCell id="waNOCx46b2gV3BR8R50c-89" style="edgeStyle=orthogonalEdgeStyle;rounded=0;orthogonalLoop=1;jettySize=auto;html=1;exitX=0.5;exitY=1;exitDx=0;exitDy=0;" edge="1" parent="1" source="waNOCx46b2gV3BR8R50c-87" target="waNOCx46b2gV3BR8R50c-30">
          <mxGeometry relative="1" as="geometry" />
        </mxCell>
        <mxCell id="waNOCx46b2gV3BR8R50c-87" value="Main Home Page (Big Screen)" style="rounded=0;whiteSpace=wrap;html=1;" vertex="1" parent="1">
          <mxGeometry x="-1207.5" y="890" width="185" height="40" as="geometry" />
        </mxCell>
        <mxCell id="waNOCx46b2gV3BR8R50c-90" value="" style="rounded=0;whiteSpace=wrap;html=1;" vertex="1" parent="1">
          <mxGeometry x="-280" y="960" width="930" height="1040" as="geometry" />
        </mxCell>
        <mxCell id="waNOCx46b2gV3BR8R50c-91" value="Product page (Big screen)" style="rounded=1;whiteSpace=wrap;html=1;" vertex="1" parent="1">
          <mxGeometry x="110" y="870" width="120" height="60" as="geometry" />
        </mxCell>
        <mxCell id="waNOCx46b2gV3BR8R50c-92" value="" style="rounded=0;whiteSpace=wrap;html=1;" vertex="1" parent="1">
          <mxGeometry x="-210" y="1000" width="750" height="50" as="geometry" />
        </mxCell>
        <mxCell id="waNOCx46b2gV3BR8R50c-93" value="Search bar" style="text;html=1;align=center;verticalAlign=middle;whiteSpace=wrap;rounded=0;" vertex="1" parent="1">
          <mxGeometry x="-200" y="1010" width="100" height="30" as="geometry" />
        </mxCell>
        <mxCell id="waNOCx46b2gV3BR8R50c-94" value="" style="ellipse;whiteSpace=wrap;html=1;aspect=fixed;" vertex="1" parent="1">
          <mxGeometry x="480" y="1010" width="35" height="35" as="geometry" />
        </mxCell>
        <mxCell id="waNOCx46b2gV3BR8R50c-95" value="Product Card" style="whiteSpace=wrap;html=1;aspect=fixed;" vertex="1" parent="1">
          <mxGeometry x="-210" y="1160" width="160" height="160" as="geometry" />
        </mxCell>
        <mxCell id="waNOCx46b2gV3BR8R50c-96" value="Category Title" style="rounded=0;whiteSpace=wrap;html=1;" vertex="1" parent="1">
          <mxGeometry x="-210" y="1100" width="100" height="30" as="geometry" />
        </mxCell>
        <mxCell id="waNOCx46b2gV3BR8R50c-97" value="Product Card" style="whiteSpace=wrap;html=1;aspect=fixed;" vertex="1" parent="1">
          <mxGeometry x="-20" y="1160" width="160" height="160" as="geometry" />
        </mxCell>
        <mxCell id="waNOCx46b2gV3BR8R50c-98" value="Product Card" style="whiteSpace=wrap;html=1;aspect=fixed;" vertex="1" parent="1">
          <mxGeometry x="360" y="1160" width="160" height="160" as="geometry" />
        </mxCell>
        <mxCell id="waNOCx46b2gV3BR8R50c-99" value="Product Card" style="whiteSpace=wrap;html=1;aspect=fixed;" vertex="1" parent="1">
          <mxGeometry x="170" y="1160" width="160" height="160" as="geometry" />
        </mxCell>
        <mxCell id="waNOCx46b2gV3BR8R50c-100" value="Product Card" style="whiteSpace=wrap;html=1;aspect=fixed;" vertex="1" parent="1">
          <mxGeometry x="-210" y="1420" width="160" height="160" as="geometry" />
        </mxCell>
        <mxCell id="waNOCx46b2gV3BR8R50c-101" value="Category Title" style="rounded=0;whiteSpace=wrap;html=1;" vertex="1" parent="1">
          <mxGeometry x="-210" y="1360" width="100" height="30" as="geometry" />
        </mxCell>
        <mxCell id="waNOCx46b2gV3BR8R50c-102" value="Product Card" style="whiteSpace=wrap;html=1;aspect=fixed;" vertex="1" parent="1">
          <mxGeometry x="-20" y="1420" width="160" height="160" as="geometry" />
        </mxCell>
        <mxCell id="waNOCx46b2gV3BR8R50c-103" value="Product Card" style="whiteSpace=wrap;html=1;aspect=fixed;" vertex="1" parent="1">
          <mxGeometry x="360" y="1420" width="160" height="160" as="geometry" />
        </mxCell>
        <mxCell id="waNOCx46b2gV3BR8R50c-104" value="Product Card" style="whiteSpace=wrap;html=1;aspect=fixed;" vertex="1" parent="1">
          <mxGeometry x="170" y="1420" width="160" height="160" as="geometry" />
        </mxCell>
        <mxCell id="waNOCx46b2gV3BR8R50c-105" value="Product Card" style="whiteSpace=wrap;html=1;aspect=fixed;" vertex="1" parent="1">
          <mxGeometry x="-210" y="1680" width="160" height="160" as="geometry" />
        </mxCell>
        <mxCell id="waNOCx46b2gV3BR8R50c-106" value="Category Title" style="rounded=0;whiteSpace=wrap;html=1;" vertex="1" parent="1">
          <mxGeometry x="-210" y="1620" width="100" height="30" as="geometry" />
        </mxCell>
        <mxCell id="waNOCx46b2gV3BR8R50c-107" value="Product Card" style="whiteSpace=wrap;html=1;aspect=fixed;" vertex="1" parent="1">
          <mxGeometry x="-20" y="1680" width="160" height="160" as="geometry" />
        </mxCell>
        <mxCell id="waNOCx46b2gV3BR8R50c-108" value="Product Card" style="whiteSpace=wrap;html=1;aspect=fixed;" vertex="1" parent="1">
          <mxGeometry x="360" y="1680" width="160" height="160" as="geometry" />
        </mxCell>
        <mxCell id="waNOCx46b2gV3BR8R50c-109" value="Product Card" style="whiteSpace=wrap;html=1;aspect=fixed;" vertex="1" parent="1">
          <mxGeometry x="170" y="1680" width="160" height="160" as="geometry" />
        </mxCell>
        <mxCell id="waNOCx46b2gV3BR8R50c-110" value="Load more" style="rounded=0;whiteSpace=wrap;html=1;" vertex="1" parent="1">
          <mxGeometry x="110" y="1890" width="120" height="30" as="geometry" />
        </mxCell>
      </root>
    </mxGraphModel>
  </diagram>
</mxfile>
